<svg width="1440" height="320" xmlns="http://www.w3.org/2000/svg">
  <defs>
    <linearGradient id="grad1" x1="0%" y1="0%" x2="100%" y2="0%">
      <stop offset="0%" style="stop-color:#d946ef;stop-opacity:1" />
      <stop offset="100%" style="stop-color:#06b6d4;stop-opacity:1" />
    </linearGradient>
  </defs>
  <path fill="url(#grad1)" fill-opacity="0.1" d="M0,160L48,176C96,192,192,224,288,224C384,224,480,192,576,165.3C672,139,768,117,864,128C960,139,1056,181,1152,197.3C1248,213,1344,203,1392,197.3L1440,192L1440,320L1392,320C1344,320,1248,320,1152,320C1056,320,960,320,864,320C768,320,672,320,576,320C480,320,384,320,288,320C192,320,96,320,48,320L0,320Z"></path>
</svg>
